<svg xmlns="http://www.w3.org/2000/svg" width="133.33333" height="133.33333" version="1.0" viewBox="0 0 100 100">
  <path d="M31.3 18.8 13 28.5v41l18.5 10.8L50 91.1l18.5-10.8L87 69.5V28.4l-18.4-9.7C58.5 13.4 50.1 9 49.9 9c-.2.1-8.6 4.5-18.6 9.8zm35.8 1.4C75.8 24.8 83 28.7 83 29c0 .7-31.5 18-32.9 18-1.4 0-33-17.2-33-18-.1-.8 31.2-16.9 32.8-17 .7 0 8.4 3.7 17.2 8.2zM35.3 42.4 49 50.1v37.8l-16.7-9.8-16.8-9.9-.3-18.7-.2-18.7 3.2 2c1.8 1 9.5 5.4 17.1 9.6zm30.5 12.2c.3 2.3-3.2 5.9-4.7 4.9-1.6-.9-1.3-3.6.6-5.7 2-2.2 3.7-1.9 4.1.8zm12 7c.3 2.3-3.2 5.9-4.7 4.9-1.6-.9-1.3-3.6.6-5.7 2-2.2 3.7-1.9 4.1.8z"/>
  <path d="M50 15.5c0 .3 3.6 2.3 8.1 4.5 4.4 2.3 7.8 3.6 7.4 3-.6-1-13.7-8-15-8-.3 0-.5.2-.5.5zM44.2 25.6c-1.2.8-2.2 2.1-2.2 2.9 0 2.2 4.1 4.5 8 4.5 3.9 0 8-2.3 8-4.5S53.9 24 50 24c-2 0-4.6.7-5.8 1.6zm10.9.4c4.2 2.3 1 6-5.1 6-6 0-9.2-3.6-5.2-5.9 2.2-1.4 7.8-1.4 10.3-.1zM70.4 26.5c1.1.8 2.5 1.5 3 1.5.6 0 .2-.7-.8-1.5-1.1-.8-2.5-1.5-3-1.5-.6 0-.2.7.8 1.5zM75.5 29c.3.5.8 1 1.1 1 .2 0 .4-.5.4-1 0-.6-.5-1-1.1-1-.5 0-.7.4-.4 1zM37.7 49.7c-1.4 1.3-.6 6 1.2 7.7 2.8 2.5 5.5 1.7 5.9-1.7.5-4.4-4.5-8.6-7.1-6zm4.5 2c2 1.8 2.4 4.8.7 5.8-2.4 1.5-6.3-4.8-4.2-6.8.9-1 1.5-.9 3.5 1zM28.7 54.7c-1.4 1.3-.6 6 1.2 7.7 2.8 2.5 5.5 1.7 5.9-1.7.5-4.4-4.5-8.6-7.1-6zm4.5 2c2 1.8 2.4 4.8.7 5.8-2.4 1.5-6.3-4.8-4.2-6.8.9-1 1.5-.9 3.5 1zM19.7 59.7c-1.4 1.3-.6 6 1.2 7.7 2.8 2.5 5.5 1.7 5.9-1.7.5-4.4-4.5-8.6-7.1-6zm4.5 2c2 1.8 2.4 4.8.7 5.8-2.4 1.5-6.3-4.8-4.2-6.8.9-1 1.5-.9 3.5 1z"/>
</svg>
